Coordinates
version=1
nRows=23
nColumns=23
inDegrees=yes

Units are S.I. units (second, meters, Newtons, ...)
If the header above contains a line with 'inDegrees', this indicates whether rotational values are in degrees (yes) or radians (no).

endheader
time	pelvis_tilt	pelvis_list	pelvis_rotation	pelvis_tx	pelvis_ty	pelvis_tz	hip_flexion_r	hip_adduction_r	hip_rotation_r	knee_angle_r	knee_angle_r_beta	ankle_angle_r	subtalar_angle_r	mtp_angle_r	hip_flexion_l	hip_adduction_l	hip_rotation_l	knee_angle_l	knee_angle_l_beta	ankle_angle_l	subtalar_angle_l	mtp_angle_l
      7.50000000	     -3.71311480	    -10.44692703	    -11.37452662	      2.18112925	      0.94587033	      1.04418063	     29.62124707	     15.49174804	    -11.45802039	     39.73040768	      0.69342643	     11.32207418	      6.88032005	      0.00000000	      0.27478076	    -14.86459279	    -15.40525585	     97.61799186	      1.70375537	    -13.09854192	    -16.20260305	      0.00000000
      7.50666667	     -3.29062401	    -10.93429402	    -11.54318113	      2.17891508	      0.94237256	      1.04381375	     28.87987568	     15.87423130	    -11.14213469	     41.94718289	      0.73211645	     13.27454760	      6.26739536	      0.00000000	      1.87631288	    -15.55600603	    -14.40146934	    100.36200616	      1.75164745	    -12.58386345	    -16.14836571	      0.00000000
      7.51333333	     -4.03730665	    -10.51298967	    -11.97025479	      2.17586551	      0.93737031	      1.04391102	     29.61564678	     15.59312446	    -10.57673125	     44.40793374	      0.77506466	     15.13603814	      6.04120467	      0.00000000	      5.19234244	    -15.48845345	    -13.35524031	    103.18442425	      1.80090794	    -11.69247643	    -15.36804839	      0.00000000
      7.52000000	     -4.23091945	    -10.32096770	    -12.21333508	      2.17310524	      0.93393462	      1.04350664	     29.38517646	     15.43013706	     -9.94314638	     46.26521112	      0.80748026	     17.05699604	      5.91358227	      0.00000000	      7.88337624	    -15.48138417	    -12.24816633	    105.58468964	      1.84280047	    -11.08438048	    -15.06940612	      0.00000000
      7.52666667	     -3.90078593	    -10.41836006	    -12.27850629	      2.17072458	      0.93209215	      1.04288285	     28.17887134	     15.47288498	     -9.24751237	     47.45686949	      0.82827863	     18.87494714	      5.71089173	      0.00000000	      9.94923398	    -15.68677896	    -11.09906574	    107.58197705	      1.87765972	    -10.55333208	    -14.83604826	      0.00000000
      7.53333333	     -4.53452394	     -9.81193175	    -12.51848032	      2.16780878	      0.92914140	      1.04247424	     28.15246222	     14.93327735	     -8.52274036	     48.79416472	      0.85161883	     20.59389515	      6.00964129	      0.00000000	     13.38108974	    -15.28298911	    -10.01052676	    109.52189049	      1.91151759	     -9.79137103	    -14.16430734	      0.00000000
      7.54000000	     -4.65897804	     -9.48807962	    -12.60314267	      2.16536383	      0.92774892	      1.04189596	     27.20200763	     14.54508599	     -7.83652617	     49.53355902	      0.86452370	     22.15710604	      6.32925271	      0.00000000	     16.14179278	    -15.06201918	     -8.93240043	    111.01267792	      1.93753674	     -9.09951095	    -13.74248904	      0.00000000
      7.54666667	     -4.65388480	     -9.24448537	    -12.57546344	      2.16328507	      0.92726942	      1.04135012	     25.85095833	     14.16979278	     -7.22671179	     49.83996647	      0.86987151	     23.51068690	      6.67841762	      0.00000000	     18.71626427	    -14.91372814	     -7.85801584	    112.14745382	      1.95734232	     -8.43095290	    -13.25571777	      0.00000000
      7.55333333	     -4.52575319	     -8.98373813	    -12.54629215	      2.16149570	      0.92762463	      1.04095342	     24.17577636	     13.75567404	     -6.56722384	     49.82458313	      0.86960302	     24.72284765	      7.00647451	      0.00000000	     21.05913948	    -14.74055242	     -6.93933078	    112.88962785	      1.97029570	     -7.81836340	    -13.02330763	      0.00000000
      7.56000000	     -4.48942573	     -8.66608026	    -12.42786457	      2.16003969	      0.92835335	      1.04057554	     22.48216305	     13.14625917	     -6.21586670	     49.59230014	      0.86554892	     25.69353548	      7.84665748	      0.00000000	     23.46200084	    -14.49464091	     -6.04717163	    113.32946832	      1.97797236	     -7.10726635	    -12.64860285	      0.00000000
      7.56666667	     -4.29518959	     -8.40092557	    -12.26896237	      2.15904111	      0.92998341	      1.04041304	     20.40614843	     12.60452541	     -5.79059912	     48.97847302	      0.85483562	     26.41760667	      8.39100325	      0.00000000	     25.53544890	    -14.30524939	     -5.28302263	    113.36908017	      1.97866372	     -6.46446425	    -12.47728902	      0.00000000
      7.57333333	     -4.29384856	     -7.92539785	    -12.35713884	      2.15807631	      0.93188771	      1.04079349	     18.50996727	     12.02850192	     -4.99983841	     48.24145928	      0.84197230	     26.79489693	      8.71500421	      0.00000000	     27.64192018	    -14.07790298	     -4.95086057	    113.05397311	      1.97316406	     -5.96702736	    -12.50418240	      0.00000000
      7.58000000	     -3.76567327	     -7.85181972	    -11.88334608	      2.15820301	      0.93512423	      1.04054791	     15.70239165	     11.48801889	     -4.97106756	     46.93974533	      0.81925311	     27.03222253	      9.38893690	      0.00000000	     29.06305010	    -13.90281694	     -4.16596246	    112.40005558	      1.96175105	     -5.14751169	    -12.37604791	      0.00000000
      7.58666667	     -3.93754738	     -7.25978563	    -11.96154994	      2.15788051	      0.93777630	      1.04118794	     13.85609478	     10.82226672	     -4.19332231	     45.85129993	      0.80025615	     27.05065158	      9.75505009	      0.00000000	     31.08013899	    -13.58214713	     -4.10793301	    111.45670669	      1.94528651	     -4.54265057	    -12.48029577	      0.00000000
      7.59333333	     -3.19376268	     -7.04316893	    -11.58416426	      2.15877839	      0.94238785	      1.04140772	     10.61672903	     10.21864820	     -3.90503346	     44.04978566	      0.76881379	     26.56098356	     10.01149384	      0.00000000	     31.81036092	    -13.32063656	     -3.85734315	    110.06434142	      1.92098515	     -3.89105028	    -12.79850641	      0.00000000
      7.60000000	     -2.91745066	     -6.58537929	    -11.48191480	      2.15952016	      0.94671983	      1.04210805	      7.99000588	      9.60313149	     -3.23092954	     42.31062879	      0.73845978	     25.81485808	     10.03481347	      0.00000000	     32.90828262	    -13.01750668	     -3.96139095	    108.44023337	      1.89263911	     -3.25813265	    -13.06048080	      0.00000000
      7.60666667	     -3.40425753	     -5.80113703	    -11.58407012	      2.16013441	      0.95020544	      1.04308458	      6.42571130	      8.77027542	     -2.58321645	     40.87305843	      0.71336944	     25.11487018	     10.36941070	      0.00000000	     34.76974134	    -12.56407900	     -4.31782854	    106.65366603	      1.86145763	     -2.59449049	    -13.21818526	      0.00000000
      7.61333333	     -2.43306409	     -5.49063932	    -11.28177456	      2.16193903	      0.95655283	      1.04378444	      2.68898036	      8.30442978	     -1.71423078	     38.26539464	      0.66785713	     22.91480118	      9.15597186	      0.00000000	     34.62773652	    -12.25028350	     -4.59406741	    104.34362162	      1.82113975	     -2.04297245	    -13.72401105	      0.00000000
      7.62000000	     -2.24706367	     -4.74299448	    -11.10322502	      2.16363776	      0.96184017	      1.04441977	      0.15883669	      7.34569045	     -1.34106870	     36.14826648	      0.63090627	     20.89052215	      8.92947662	      0.00000000	     35.30710204	    -11.55725788	     -5.07494390	    101.87746604	      1.77809722	     -1.63977080	    -14.34362596	      0.00000000
      7.62666667	     -1.97892648	     -4.05987751	    -10.94216753	      2.16557288	      0.96756556	      1.04517841	     -2.54287089	      6.54007352	     -0.77139810	     33.76797428	      0.58936233	     18.32652561	      8.14832830	      0.00000000	     35.70233441	    -10.97192369	     -5.64940557	     99.17183498	      1.73087505	     -1.16126408	    -14.70667569	      0.00000000
      7.63333333	     -1.79001645	     -3.25876639	    -10.71098139	      2.16772483	      0.97329318	      1.04571830	     -5.06886925	      5.56065185	     -0.54610194	     31.40896396	      0.54818984	     15.45897806	      7.56738638	      0.00000000	     36.05456988	    -10.18076765	     -6.25840160	     96.24152565	      1.67973150	     -0.79638071	    -15.17555415	      0.00000000
      7.64000000	     -1.66069465	     -2.42655305	    -10.41258239	      2.17004744	      0.97901852	      1.04603924	     -7.48637707	      4.55963535	     -0.52875169	     29.01296695	      0.50637180	     12.21844560	      6.80580886	      0.00000000	     36.34978743	     -9.29395225	     -6.86333950	     93.11092211	      1.62509216	     -0.45820435	    -15.55868869	      0.00000000
      7.64666667	     -1.62327433	     -1.44645286	     -9.97382299	      2.17251753	      0.98443764	      1.04607506	     -9.59769460	      3.30104189	     -1.31865111	     26.90486372	      0.46957846	      8.96828050	      6.91538346	      0.00000000	     36.66126142	     -8.12614461	     -7.41301155	     89.78487377	      1.56704167	     -0.29179870	    -16.04418626	      0.00000000
